<svg xmlns="http://www.w3.org/2000/svg" version="1.1" xmlns:xlink="http://www.w3.org/1999/xlink" xmlns:svgjs="http://svgjs.dev/svgjs" width="1000" height="999" viewBox="0 0 1000 999"><g transform="matrix(1,0,0,1,-0.215743440233382,-0.21552769679306039)"><svg viewBox="0 0 343 343" data-background-color="#000000" preserveAspectRatio="xMidYMid meet" height="999" width="1000" xmlns="http://www.w3.org/2000/svg" xmlns:xlink="http://www.w3.org/1999/xlink"><g id="tight-bounds" transform="matrix(1,0,0,1,0.0740000000000407,0.07400000000001228)"><svg viewBox="0 0 342.85155851775386 342.85155851775386" height="342.85155851775386" width="342.85155851775386"><g><svg></svg></g><g><svg viewBox="0 0 342.85155851775386 342.85155851775386" height="342.85155851775386" width="342.85155851775386"><g><path d="M0 171.426c0-94.676 76.75-171.426 171.426-171.426 94.676 0 171.426 76.75 171.426 171.426 0 94.676-76.75 171.426-171.426 171.426-94.676 0-171.426-76.75-171.426-171.426zM171.426 336.584c91.214 0 165.158-73.944 165.158-165.158 0-91.214-73.944-165.158-165.158-165.158-91.214 0-165.158 73.944-165.158 165.158 0 91.214 73.944 165.158 165.158 165.158z" data-fill-palette-color="tertiary" fill="#001425" stroke="transparent"></path><ellipse rx="164.56874808852186" ry="164.56874808852186" cx="171.42577925887693" cy="171.42577925887693" fill="#001425" stroke="transparent" stroke-width="0" fill-opacity="1" data-fill-palette-color="tertiary"></ellipse></g><g transform="matrix(1,0,0,1,64.84655864529837,80.44796973958069)"><svg viewBox="0 0 213.1584412271571 181.9556190385925" height="181.9556190385925" width="213.1584412271571"><g><svg viewBox="0 0 213.1584412271571 181.9556190385925" height="181.9556190385925" width="213.1584412271571"><g><svg viewBox="0 0 213.1584412271571 181.9556190385925" height="181.9556190385925" width="213.1584412271571"><g transform="matrix(1,0,0,1,0,112.45587226325347)"><svg viewBox="0 0 213.1584412271571 69.49974677533902" height="69.49974677533902" width="213.1584412271571"><g id="textblocktransform"><svg viewBox="0 0 213.1584412271571 69.49974677533902" height="69.49974677533902" width="213.1584412271571" id="textblock"><g><svg viewBox="0 0 213.1584412271571 69.49974677533902" height="69.49974677533902" width="213.1584412271571"><g transform="matrix(1,0,0,1,0,0)"><svg width="213.1584412271571" viewBox="4.300000190734863 -35.20000076293945 137.22999572753906 44.75" height="69.49974677533902" data-palette-color="#fd4d4d"><path d="M15.2-32.15Q20.05-32.15 22.68-29.68 25.3-27.2 25.3-22.55L25.3-22.55Q25.3-17.15 21.98-14 18.65-10.85 12.85-10.85L12.85-10.85 9.3-10.85 9.3-10.1 9.55 0 4.3 0 4.65-9.65 4.3-32.1 15.2-32.15ZM14.35-14.85Q17.1-15.4 18.53-17.23 19.95-19.05 19.95-22.1L19.95-22.1Q19.95-25.1 18.43-26.55 16.9-28 13.8-28.1L13.8-28.1 9.55-27.95 9.35-14.95 14.35-14.85ZM37.3-23.5Q40.75-23.5 42.75-21.85 44.75-20.2 44.75-17.25L44.75-17.25Q44.75-16.35 44.45-11.25L44.45-11.25Q44.15-6.25 44.15-5.4L44.15-5.4Q44.15-4.45 44.47-4.08 44.8-3.7 45.6-3.7L45.6-3.7Q46.1-3.7 47.1-3.9L47.1-3.9 47.55-3.55 47.05-0.75Q45.6 0.15 43.9 0.35L43.9 0.35Q42.35 0.2 41.4-0.78 40.45-1.75 40.25-3.35L40.25-3.35 39.9-3.35Q37.35-0.65 34.7 0.4L34.7 0.4Q31.25 0.35 29.27-1.4 27.3-3.15 27.3-6.15L27.3-6.15Q27.3-10.6 32.15-11.7L32.15-11.7 40.05-13.45 40.1-16.15Q40.1-18 39.17-18.95 38.25-19.9 36.5-19.9L36.5-19.9Q34.8-19.9 33.1-19.13 31.4-18.35 29.35-16.7L29.35-16.7 28.95-16.95 28.3-20.5Q32.7-23.5 37.3-23.5L37.3-23.5ZM40.05-10.5L33.55-8.95Q32.65-8.75 32.25-8.28 31.85-7.8 31.85-6.8L31.85-6.8Q31.85-5.3 32.67-4.45 33.5-3.6 34.9-3.6L34.9-3.6Q37.25-3.6 39.9-6.65L39.9-6.65 40.05-10.5ZM63.65-23.1Q64.2-23.1 64.9-23L64.9-23 64.9-18.15 64.35-18Q63.55-18.25 62.5-18.25L62.5-18.25Q60.95-18.25 59.6-17.1 58.25-15.95 57-13.4L57-13.4 56.95-10.1 57.25 0 52.15 0 52.5-9.65 52.2-22.7 57.05-23.15 57-18.55 57.35-18.55Q58.7-20.95 60.35-22.03 62-23.1 63.65-23.1L63.65-23.1ZM77.04-3.85Q78.69-3.85 80.54-4.75L80.54-4.75 81.04-4.4 80.54-1.2Q77.79 0.1 75.44 0.3L75.44 0.3Q72.34-0.2 70.94-1.78 69.54-3.35 69.54-6.35L69.54-6.35 69.74-9.95 69.69-19.7 66.54-19.7 66.34-20 66.59-22.95 69.64-22.95 69.64-26.6 74.14-28.3 74.59-27.9 74.49-22.95 80.89-22.95 81.09-22.6 80.84-19.7 74.39-19.7 74.14-7.15Q74.09-5.3 74.77-4.58 75.44-3.85 77.04-3.85L77.04-3.85ZM86.74-23.2L87.49-19.95 92.49-5.3 92.84-5.3 97.84-19.5 98.69-23.05 103.09-23.05 95.14-1.15Q93.94 2.25 92.49 4.28 91.04 6.3 88.91 7.5 86.79 8.7 83.39 9.55L83.39 9.55 82.94 9.55Q81.74 8.35 80.84 6.55L80.84 6.55 80.99 6Q84.54 5.35 86.59 4.1 88.64 2.85 90.34 0L90.34 0 81.94-22.95 86.74-23.2ZM117.69-35.2Q119.64-35.2 121.74-34.75L121.74-34.75 121.44-30.9 121.09-30.6Q118.94-31.55 117.24-31.55L117.24-31.55Q115.44-31.55 114.49-30.48 113.54-29.4 113.49-27.25L113.49-27.25 113.44-22.95 119.34-22.95 119.49-22.6 119.19-19.7 113.39-19.7 113.24-10.15 113.59 0 108.49 0 108.79-9.7 108.69-19.7 105.24-19.7 105.04-20 105.29-22.95 108.69-22.95 108.64-26.4Q108.59-30.65 110.96-32.93 113.34-35.2 117.69-35.2L117.69-35.2ZM125.19-23.2L125.94-19.95 130.94-5.3 131.28-5.3 136.28-19.5 137.13-23.05 141.53-23.05 133.59-1.15Q132.38 2.25 130.94 4.28 129.49 6.3 127.36 7.5 125.23 8.7 121.84 9.55L121.84 9.55 121.39 9.55Q120.19 8.35 119.29 6.55L119.29 6.55 119.44 6Q122.98 5.35 125.04 4.1 127.09 2.85 128.78 0L128.78 0 120.39-22.95 125.19-23.2Z" opacity="1" transform="matrix(1,0,0,1,0,0)" fill="#fd4d4d" class="wordmark-text-0" data-fill-palette-color="quaternary" id="text-0"></path></svg></g></svg></g></svg></g></svg></g><g transform="matrix(1,0,0,1,58.525984248574204,0)"><svg viewBox="0 0 96.1064727300087 96.04865004351853" height="96.04865004351853" width="96.1064727300087"><g><svg xmlns="http://www.w3.org/2000/svg" xmlns:xlink="http://www.w3.org/1999/xlink" version="1.1" x="0" y="0" viewBox="0.9461698532104492 2 96.05657196044922 95.998779296875" enable-background="new 0 0 100 100" xml:space="preserve" height="96.04865004351853" width="96.1064727300087" class="icon-icon-0" data-fill-palette-color="quaternary" id="icon-0"><g fill="#fd4d4d" data-fill-palette-color="quaternary"><path fill="#fd4d4d" d="M93.732 14.804L28.318 2c-0.006 0-0.013 0-0.019 0h-1.634C24.862 2 23 3.445 23 5.224V6.86c0 0 0 0.004 0 0.007l0.203 46.41c-2.894 0.085-5.822 0.663-8.815 1.929C4.269 59.487-1.33 69.224 1.826 76.952c3.153 7.728 13.94 10.521 24.062 6.24 8.887-3.76 13.953-11.728 13.009-18.847C39.168 63.874 39 63.355 39 62.769V21.345l42 9.6V66.08c-3 0.125-5.866 0.713-8.732 1.926-10.118 4.28-15.859 14.018-12.703 21.745 3.152 7.729 13.871 10.522 23.989 6.241 9.112-3.856 14.558-12.131 13.258-19.384C96.924 76.28 97 75.937 97 75.567v-55.9c0-0.004 0-0.004 0-0.004v-1.641C97 16.245 95.537 14.804 93.732 14.804z" data-fill-palette-color="quaternary"></path></g></svg></g></svg></g><g></g></svg></g></svg></g></svg></g></svg></g><defs></defs></svg><rect width="342.85155851775386" height="342.85155851775386" fill="none" stroke="none" visibility="hidden"></rect></g></svg></g></svg>